<?xml version="1.0" standalone="no"?>
<!DOCTYPE svg PUBLIC "-//W3C//DTD SVG 20010904//EN"
 "http://www.w3.org/TR/2001/REC-SVG-20010904/DTD/svg10.dtd">
<svg version="1.0" xmlns="http://www.w3.org/2000/svg"
 width="348.000000pt" height="348.000000pt" viewBox="0 0 348.000000 348.000000"
 preserveAspectRatio="xMidYMid meet">
<metadata>
Created by potrace 1.16, written by Peter Selinger 2001-2019
</metadata>
<g transform="translate(0.000000,348.000000) scale(0.100000,-0.100000)"
fill="#000000" stroke="none">
<path d="M1542 3080 c-23 -11 -42 -17 -42 -14 0 2 -11 -3 -25 -12 -13 -8 -28
-13 -34 -10 -5 3 -12 -1 -15 -10 -5 -13 -2 -15 15 -11 20 5 20 5 3 -14 -16
-17 -16 -22 -4 -29 10 -7 11 -10 3 -10 -7 0 -19 15 -27 33 -9 20 -15 26 -15
14 -1 -10 -6 -15 -11 -12 -7 4 -7 13 0 26 8 13 7 19 0 19 -6 0 -8 5 -4 12 8
12 -4 7 -48 -24 -16 -11 -28 -16 -29 -11 0 4 -4 -1 -8 -12 -5 -11 -13 -21 -20
-21 -22 -3 -23 -4 -10 -21 8 -10 9 -14 2 -10 -7 4 -18 -2 -27 -15 -19 -27 -21
-42 -4 -32 6 4 -8 -17 -33 -48 -42 -52 -71 -69 -49 -28 19 35 10 35 -13 1 -12
-19 -30 -46 -39 -60 -9 -14 -17 -34 -17 -43 -1 -9 -6 -20 -13 -24 -8 -5 -9 0
-6 14 4 14 2 20 -4 16 -5 -4 -8 -19 -6 -35 3 -17 0 -26 -6 -22 -5 4 -7 0 -3
-9 3 -9 -1 -38 -9 -64 -8 -27 -12 -54 -10 -61 4 -10 -10 -70 -20 -81 -1 -2
-13 4 -27 12 -28 19 -77 7 -77 -18 0 -8 -3 -21 -6 -29 -4 -12 0 -14 16 -10 21
6 22 3 18 -33 -3 -21 -11 -71 -18 -110 -12 -64 -12 -76 3 -116 10 -25 24 -53
33 -64 15 -18 15 -18 5 2 -9 18 -7 23 10 27 12 3 18 10 14 16 -3 6 2 11 13 11
20 0 34 -20 37 -51 1 -8 5 -32 9 -52 8 -44 2 -46 -38 -9 -29 25 -29 25 -8 1
20 -23 22 -36 22 -130 0 -122 10 -148 94 -262 82 -111 254 -301 306 -339 25
-17 98 -75 164 -127 65 -53 138 -110 161 -128 24 -17 46 -36 49 -42 4 -5 -7
-25 -24 -44 -34 -40 -28 -47 36 -37 33 5 41 4 37 -7 -3 -7 2 -13 10 -13 8 0
25 -9 38 -20 l24 -20 -28 10 c-38 14 -80 13 -71 -1 3 -6 25 -19 48 -29 40 -18
40 -19 7 -13 l-33 6 16 -26 c10 -14 30 -30 45 -35 23 -8 28 -15 24 -34 -3 -18
4 -28 33 -47 28 -18 36 -19 31 -7 -4 9 -9 46 -13 82 -6 58 -11 70 -44 104 -21
22 -40 37 -44 35 -3 -3 -2 0 2 6 16 19 62 -1 68 -30 4 -14 14 -35 23 -46 27
-33 57 -79 64 -99 4 -10 10 -16 14 -13 6 6 33 -68 128 -343 85 -248 97 -289
90 -299 -3 -6 1 -11 9 -11 9 0 16 2 16 5 0 8 -38 129 -105 335 -57 174 -127
417 -130 445 0 6 -4 16 -9 24 -5 8 -3 16 5 22 10 6 11 9 2 9 -7 0 -13 5 -13
10 0 7 6 7 19 0 14 -7 22 -7 27 2 4 6 3 8 -4 4 -6 -3 -13 -2 -16 3 -3 5 4 11
15 14 17 5 21 12 17 37 -3 19 -1 29 6 27 6 -3 10 -10 8 -16 -1 -7 2 -10 6 -7
5 3 17 -3 27 -14 20 -22 35 -26 35 -9 0 5 -4 7 -10 4 -5 -3 -10 -1 -10 4 0 6
6 11 13 11 9 0 8 3 -2 9 -10 7 -10 10 -1 16 7 4 16 2 20 -5 5 -8 13 -9 21 -4
12 6 12 5 1 -8 -10 -13 -10 -17 3 -22 9 -3 13 -2 10 3 -3 5 -1 12 5 16 5 3 10
0 10 -8 0 -19 -29 -86 -30 -69 0 7 -4 10 -10 7 -6 -4 -5 -11 3 -20 15 -17 21
-10 37 38 6 20 16 35 21 32 5 -4 9 -1 9 5 0 6 5 8 12 4 12 -8 7 4 -24 48 -31
44 -3 41 37 -5 21 -23 34 -33 30 -22 -4 11 -8 25 -8 32 0 7 -4 10 -9 7 -9 -6
-11 8 -2 30 3 9 10 13 15 10 5 -3 6 -11 3 -17 -4 -8 -2 -7 7 1 12 11 12 14 -1
22 -8 5 -17 7 -21 4 -4 -2 -12 3 -18 10 -10 12 -8 14 11 9 15 -3 19 -2 10 4
-6 5 -23 24 -37 43 -14 19 -25 30 -25 25 0 -5 -10 1 -22 12 -21 18 -146 96
-158 99 -20 4 -40 18 -40 30 0 7 33 53 73 101 40 48 87 107 105 130 45 57 127
226 140 288 6 28 13 145 17 260 3 116 11 264 16 330 17 181 -2 315 -43 312
-17 -1 -17 -3 -4 -13 9 -6 16 -15 16 -19 0 -14 -32 19 -41 43 -6 15 -15 22
-24 18 -8 -3 -17 0 -21 6 -4 6 -3 8 4 4 19 -11 19 8 0 27 -17 16 -18 16 -18
-5 0 -18 -5 -13 -19 17 -23 52 -67 101 -74 83 -4 -8 -6 -7 -6 5 -1 9 -4 16 -8
15 -15 -3 -48 16 -65 37 -17 20 -17 20 -12 -5 5 -21 4 -22 -6 -10 -10 13 -11
12 -5 -5 4 -11 8 -25 8 -32 0 -7 4 -10 9 -7 5 3 5 10 2 16 -4 6 -2 8 3 5 6 -4
9 -20 8 -36 -1 -16 2 -35 7 -43 7 -9 8 -7 4 7 -5 16 -2 14 17 -7 13 -15 28
-24 33 -20 4 4 2 -1 -5 -10 -9 -12 -10 -18 -2 -18 6 0 11 -5 11 -11 0 -5 -3
-8 -7 -6 -5 3 -8 -8 -8 -23 0 -24 2 -26 15 -17 9 7 8 4 -2 -9 -21 -24 -24 -49
-5 -38 8 5 8 3 -2 -9 -7 -9 -17 -15 -21 -12 -5 3 -12 0 -16 -6 -5 -8 4 -10 29
-7 l35 4 -19 -28 c-14 -20 -17 -33 -11 -45 5 -10 7 -24 5 -31 -3 -7 5 -21 18
-31 17 -14 19 -20 9 -26 -9 -6 -11 -4 -5 6 5 10 5 11 -2 4 -6 -5 -14 -24 -18
-42 -6 -28 -4 -31 14 -26 13 3 21 1 21 -8 0 -10 3 -10 11 -2 15 15 39 5 39
-16 0 -13 -2 -13 -9 -2 -6 9 -10 10 -16 2 -4 -7 -16 -9 -28 -6 -16 5 -18 4 -8
-3 15 -11 -2 -27 -19 -17 -5 3 -21 -5 -34 -18 -14 -14 -27 -22 -30 -19 -3 3
-6 0 -6 -7 0 -7 -4 -9 -10 -6 -5 3 -23 -4 -39 -16 -16 -12 -33 -19 -39 -15 -5
3 -17 -13 -25 -37 -20 -52 -18 -179 3 -222 12 -24 13 -41 5 -80 -5 -27 -14
-56 -18 -62 -10 -16 -107 -18 -107 -2 0 5 -4 8 -9 5 -19 -12 -145 13 -158 30
-20 27 -26 9 -9 -25 9 -17 26 -33 39 -35 106 -22 102 -20 102 -51 0 -25 6 -33
39 -47 21 -10 42 -16 46 -13 5 3 11 2 14 -3 5 -8 -6 -11 -49 -13 -11 -1 -14
-3 -7 -6 6 -3 12 -10 12 -17 0 -15 -120 -14 -152 1 -13 6 -31 14 -40 17 -11 3
-15 11 -12 21 4 9 3 15 -2 14 -5 -1 -26 -1 -46 0 -32 1 -38 5 -38 22 0 17 -3
19 -14 10 -11 -9 -15 -8 -20 4 -3 8 -9 15 -13 14 -42 -7 -43 16 0 37 39 20 67
51 67 74 0 9 11 27 25 40 14 13 23 25 22 27 -7 7 -73 -21 -104 -43 -17 -13
-36 -24 -42 -24 -6 0 -11 -4 -11 -10 0 -5 -7 -10 -16 -10 -8 0 -13 -3 -11 -7
3 -5 -8 -8 -25 -8 -19 0 -36 8 -48 23 -10 12 -24 22 -32 22 -10 0 -10 2 -1 8
9 6 7 12 -7 25 -11 9 -20 14 -20 10 0 -3 -8 1 -18 10 -10 10 -21 14 -25 11 -3
-3 -4 2 -3 13 2 10 1 23 -2 28 -4 6 -7 19 -8 31 0 12 -8 31 -17 44 -12 17 -13
29 -6 48 5 13 7 33 4 43 -7 20 9 25 39 13 12 -5 14 -10 6 -19 -9 -11 -5 -12
21 -8 28 4 31 3 21 -10 -16 -19 -5 -28 25 -21 13 4 29 2 36 -3 6 -5 19 -9 27
-8 8 0 18 -3 21 -8 13 -18 119 -17 176 2 31 10 62 17 70 14 19 -8 83 25 83 43
0 8 13 23 30 32 25 14 29 22 26 50 -2 18 -12 39 -22 47 -18 14 -204 119 -214
121 -58 11 -81 18 -86 25 -9 16 -81 10 -88 -6 -3 -8 -10 -15 -16 -15 -6 0 -1
13 12 30 25 34 32 74 12 66 -9 -3 -11 1 -7 11 5 11 3 14 -6 8 -7 -4 -5 5 5 20
14 22 15 30 5 47 -6 10 -9 28 -6 38 3 10 1 21 -4 25 -7 4 -8 -1 -4 -12 7 -19
5 -18 -17 11 -10 13 -10 17 -2 12 7 -4 12 -2 12 4 0 6 5 8 12 4 7 -4 8 -3 4 5
-4 6 -12 9 -17 6 -12 -8 -11 2 1 25 8 16 7 18 -4 14 -8 -3 -17 -13 -20 -22 -2
-10 -3 -5 -2 9 1 15 8 35 16 44 8 10 13 19 10 19 -2 1 3 12 13 26 15 21 19 23
28 10 9 -13 10 -12 5 2 -7 22 26 42 41 27 8 -8 13 -7 18 3 5 7 4 10 0 5 -5 -4
-17 1 -28 10 -11 10 -17 12 -13 6 4 -8 1 -13 -8 -13 -8 0 -17 -6 -19 -12 -4
-8 -6 -7 -6 3 -1 9 6 19 14 23 9 3 12 12 9 23 -5 14 -4 15 4 4 9 -12 13 -12
26 -2 8 7 20 10 25 7 5 -4 16 3 24 14 7 11 16 17 20 14 3 -3 3 3 0 15 -3 12
-1 21 6 21 6 0 11 5 11 11 0 5 -4 7 -10 4 -5 -3 -10 0 -10 9 0 8 6 16 13 19 6
2 10 7 7 10 -3 3 -24 -3 -48 -13z m-555 -720 c2 -13 -2 -27 -8 -31 -12 -7 2
-41 27 -67 7 -7 11 -20 8 -30 -3 -9 2 -6 10 8 11 18 15 20 16 9 0 -9 3 -32 6
-50 5 -33 5 -33 -9 -10 -14 23 -14 23 -20 2 -3 -14 -10 -19 -20 -15 -10 3 -18
-2 -22 -15 -10 -32 -21 -25 -40 25 -17 44 -17 50 -1 103 20 66 24 83 25 94 2
18 24 0 28 -23z m622 -644 c10 -6 16 -5 19 3 3 9 7 9 18 0 8 -6 12 -15 9 -19
-3 -5 -1 -11 5 -15 6 -4 10 5 10 19 0 25 22 36 34 17 3 -4 16 -6 30 -4 13 3
27 0 30 -6 4 -6 22 -11 41 -11 19 0 37 -5 40 -10 4 -6 11 -8 16 -5 5 4 29 3
54 -1 35 -5 45 -10 45 -25 0 -17 -8 -19 -66 -19 -41 0 -63 -4 -59 -10 3 -5 33
-10 66 -10 58 0 59 -1 59 -27 0 -19 -3 -24 -9 -15 -6 11 -9 9 -13 -5 -4 -16
-15 -19 -64 -20 -72 -1 -124 21 -184 77 -56 52 -82 68 -73 44 5 -13 3 -15 -7
-9 -10 6 -11 4 -4 -6 5 -8 7 -22 6 -31 -2 -10 2 -18 8 -18 6 0 8 4 5 10 -3 6
1 7 10 4 14 -6 14 -8 -2 -21 -10 -8 -12 -12 -5 -8 6 3 12 4 12 1 0 -2 3 -12 7
-22 5 -13 3 -15 -8 -9 -8 5 1 -7 19 -25 17 -19 32 -38 32 -42 0 -5 4 -6 10 -3
5 3 12 -6 16 -20 5 -21 9 -23 21 -14 11 10 13 10 11 -1 -2 -8 6 -15 18 -16 31
-2 46 -14 39 -31 -4 -12 -2 -13 7 -5 10 7 18 3 33 -16 12 -17 13 -22 4 -14
-13 10 -21 8 -43 -13 -14 -13 -33 -22 -41 -19 -8 4 -15 1 -15 -6 0 -9 -7 -7
-20 5 -11 10 -20 14 -20 8 0 -6 -11 -8 -25 -6 -13 3 -24 8 -23 12 2 17 -3 31
-12 31 -5 0 -7 -8 -3 -17 5 -16 4 -16 -8 -3 -8 8 -20 20 -28 27 -11 10 -10 11
8 6 16 -4 21 -1 21 13 0 26 -16 48 -28 40 -5 -3 -13 9 -16 28 -4 19 -13 39
-21 46 -8 7 -15 19 -15 27 0 8 -5 11 -11 7 -17 -10 -28 16 -18 43 7 18 5 28
-6 39 -8 8 -11 22 -8 30 3 9 7 25 8 37 1 12 3 25 4 28 1 7 57 -11 80 -25z"/>
<path d="M1674 892 c-16 -15 -52 -42 -78 -60 -35 -24 -46 -36 -38 -44 7 -7 16
-8 24 -1 7 5 32 16 56 23 37 12 45 12 53 -1 7 -10 8 -3 3 21 -6 34 -6 35 13
17 11 -9 25 -34 31 -55 15 -49 65 -108 98 -116 34 -9 37 -4 23 28 -8 18 -25
29 -51 36 -41 12 -53 30 -14 23 21 -4 24 -2 19 15 -3 12 -15 23 -27 25 -14 3
-11 5 11 6 26 1 31 4 26 19 -9 23 -23 31 -58 33 -16 1 -23 3 -13 6 14 4 13 7
-7 29 -28 30 -33 30 -71 -4z"/>
<path d="M2654 828 c12 -56 16 -72 20 -94 3 -12 13 -57 24 -100 26 -102 44
-212 37 -224 -3 -5 -1 -11 4 -15 5 -3 8 -14 6 -25 -2 -12 0 -18 5 -15 9 6 8
24 -3 42 -4 6 -3 13 2 15 5 2 2 41 -6 88 -10 60 -12 120 -8 203 5 81 3 117 -4
117 -6 0 -11 -17 -11 -37 0 -27 -3 -34 -9 -23 -6 8 -8 18 -5 22 3 4 -1 18 -8
30 -7 13 -11 27 -10 31 1 5 -2 6 -8 2 -5 -3 -10 -1 -10 4 0 6 -5 11 -11 11 -8
0 -9 -11 -5 -32z"/>
<path d="M2015 445 c-4 -22 -15 -76 -25 -120 -18 -77 -18 -101 0 -90 11 7 -25
-102 -39 -119 -9 -10 14 -55 23 -45 15 17 44 87 63 154 12 44 21 64 19 45 -2
-19 1 -44 6 -55 17 -41 -2 161 -21 215 l-19 54 -7 -39z"/>
</g>
</svg>
